<?xml version="1.0" standalone="no"?>
<!DOCTYPE svg PUBLIC "-//W3C//DTD SVG 20010904//EN"
 "http://www.w3.org/TR/2001/REC-SVG-20010904/DTD/svg10.dtd">
<svg version="1.0" xmlns="http://www.w3.org/2000/svg"
 width="1080.000000pt" height="1080.000000pt" viewBox="0 0 1080.000000 1080.000000"
 preserveAspectRatio="xMidYMid meet">

<g transform="translate(0.000000,1080.000000) scale(0.100000,-0.100000)"
fill="#000000" stroke="#ffffff" stroke-width="25">
<path d="M6865 7221 c-37 -9 -69 -26 -89 -47 -15 -14 -13 -18 18 -47 25 -24
37 -47 46 -90 7 -31 10 -60 7 -63 -3 -4 -46 3 -94 15 -566 135 -1364 66 -1810
-159 -231 -115 -312 -235 -283 -416 21 -131 86 -224 156 -224 31 0 35 3 41 33
14 69 179 196 398 305 303 150 668 256 1080 312 96 13 448 30 490 23 l30 -5
-7 -151 c-4 -84 -14 -213 -22 -287 -8 -74 -33 -310 -55 -525 -36 -337 -46
-403 -72 -485 -43 -134 -101 -251 -145 -289 -40 -36 -50 -36 -77 0 -43 58 -31
255 40 659 20 113 38 246 40 295 4 84 3 94 -24 144 -47 89 -144 125 -237 86
-111 -47 -239 -241 -358 -545 -34 -86 -47 -113 -44 -85 3 22 13 94 22 161 25
181 9 244 -81 306 -76 53 -220 57 -274 7 l-21 -20 20 -28 c52 -69 46 -227 -24
-726 -25 -175 -47 -254 -112 -391 -41 -87 -82 -134 -118 -134 -42 0 -56 41
-56 169 0 123 14 239 65 549 42 252 44 311 12 366 -54 94 -252 141 -318 75
-18 -18 -18 -21 -4 -50 15 -29 33 -129 23 -129 -2 0 -18 19 -35 43 -18 25 -53
55 -85 72 -44 24 -65 29 -124 29 -60 0 -81 -5 -138 -33 -194 -95 -353 -346
-422 -666 -26 -119 -24 -345 4 -447 52 -191 146 -293 282 -305 95 -9 151 16
241 106 62 63 84 95 125 179 27 56 52 102 55 102 3 0 11 -24 18 -54 24 -110
106 -196 204 -215 127 -26 239 51 335 228 l40 74 15 -29 c19 -36 83 -97 122
-117 47 -24 115 -39 143 -32 24 6 24 8 18 68 -13 129 35 368 120 604 49 138
186 426 228 482 25 33 26 34 26 10 0 -13 -11 -89 -24 -169 -45 -269 -51 -325
-50 -460 0 -112 3 -147 22 -205 59 -187 206 -262 360 -184 71 35 116 83 180
192 l45 78 13 -28 c31 -72 167 -157 241 -151 l38 3 -3 120 c-4 117 21 405 39
453 5 12 17 22 27 22 15 0 26 -20 52 -90 91 -256 234 -481 370 -583 32 -25 56
-47 53 -51 -4 -3 -30 -6 -58 -6 -56 0 -487 -40 -705 -65 -464 -55 -1219 -194
-1703 -316 -645 -161 -1236 -383 -1396 -524 -112 -98 -108 -326 8 -446 40 -41
53 -49 84 -49 29 0 39 5 54 30 66 113 497 344 1008 542 510 198 1541 497 2315
672 85 19 234 53 330 75 142 32 194 39 275 39 168 -1 304 59 420 184 76 82
125 174 161 298 24 83 26 104 22 209 -4 100 -9 126 -33 179 -62 138 -192 192
-271 113 l-26 -26 31 -6 c78 -16 114 -101 115 -269 1 -133 -11 -193 -64 -306
-47 -103 -102 -158 -176 -180 -64 -18 -103 -13 -159 24 -104 67 -195 204 -339
510 l-77 163 28 22 c115 88 233 230 285 343 26 57 32 85 36 159 4 84 2 94 -25
145 -57 108 -168 143 -278 87 -91 -46 -168 -133 -251 -284 -32 -57 -54 -89
-54 -76 0 11 9 81 20 155 38 262 53 425 54 593 1 142 -2 178 -17 217 -20 52
-68 100 -125 124 -44 18 -145 26 -187 15z m603 -970 c11 -109 -103 -337 -224
-452 -55 -51 -128 -99 -153 -99 -25 0 125 331 200 442 94 138 170 185 177 109z
m-2561 -445 c66 -55 72 -218 11 -283 -27 -29 -16 -56 26 -61 31 -4 31 2 7 -97
-30 -122 -97 -309 -151 -421 -53 -109 -131 -204 -167 -204 -26 0 -57 37 -75
88 -20 57 -17 327 5 429 60 280 178 526 272 564 32 13 42 11 72 -15z m1983
-96 c0 -5 -2 -10 -4 -10 -3 0 -8 5 -11 10 -3 6 -1 10 4 10 6 0 11 -4 11 -10z" fill="#ffffff" />
<path d="M3601 6671 c-339 -86 -694 -448 -785 -801 -56 -218 -17 -398 116
-536 83 -87 170 -139 390 -235 202 -88 290 -136 360 -198 106 -94 134 -234 71
-361 -125 -254 -516 -373 -740 -225 -67 45 -116 112 -144 198 -44 137 -6 304
88 387 57 50 56 76 -7 108 -39 20 -56 23 -125 19 -252 -12 -369 -246 -284
-567 48 -178 172 -332 329 -408 119 -58 221 -77 375 -69 327 17 598 166 760
417 72 111 106 214 112 340 6 119 -5 188 -43 270 -79 170 -208 263 -541 390
-225 86 -309 144 -364 250 -21 39 -24 58 -23 150 0 90 4 116 28 180 87 231
306 466 502 540 99 36 140 23 171 -57 15 -40 18 -76 18 -208 -1 -163 -9 -227
-47 -345 -36 -114 -78 -191 -135 -247 -58 -59 -57 -57 -43 -83 16 -30 74 -60
148 -75 129 -27 226 10 282 107 59 104 86 315 69 530 -22 280 -99 447 -236
514 -74 37 -193 42 -302 15z" fill="#ffffff"/>
</g>
</svg>
